<?xml version="1.0" encoding="UTF-8" standalone="no"?>
<!DOCTYPE svg PUBLIC "-//W3C//DTD SVG 1.1//EN" "http://www.w3.org/Graphics/SVG/1.1/DTD/svg11.dtd">
<svg width="100%" height="100%" viewBox="0 0 2575 460" version="1.1" xmlns="http://www.w3.org/2000/svg" xmlns:xlink="http://www.w3.org/1999/xlink" xml:space="preserve" xmlns:serif="http://www.serif.com/" style="fill-rule:evenodd;clip-rule:evenodd;stroke-linejoin:round;stroke-miterlimit:2;">
    <g id="Artboard1" transform="matrix(0.734027,0,0,0.185184,0,0)">
        <rect x="0" y="0" width="3507.87" height="2480.32" style="fill:none;"/>
        <g transform="matrix(3.5867,0,0,14.2169,-4522.76,-16145.5)">
            <g transform="matrix(0.958198,0,0,0.958198,54.7929,47.6094)">
                <g transform="matrix(0.960885,0,0,0.960885,50.0281,47.0945)">
                    <path d="M1262.26,1204L1262.26,1301C1262.26,1310.24 1269.76,1317.74 1279,1317.74C1288.24,1317.74 1295.74,1310.24 1295.74,1301L1295.74,1204C1295.74,1194.76 1288.24,1187.26 1279,1187.26C1269.76,1187.26 1262.26,1194.76 1262.26,1204Z" style="fill:url(#_Linear1);"/>
                </g>
                <path d="M1279,1171.08L1357,1171.08C1363.66,1171.08 1371.17,1174.94 1377.97,1180.68C1389.62,1190.49 1398.98,1206.42 1397.94,1225.11C1396.85,1244.67 1387.3,1261.3 1376.08,1271.55C1370.18,1276.93 1364.09,1280.8 1358.65,1280.92C1338.1,1281.37 1328.77,1280.93 1328.77,1280.93C1319.9,1280.51 1312.36,1287.37 1311.93,1296.23C1311.51,1305.1 1318.37,1312.64 1327.23,1313.07C1327.23,1313.07 1337.26,1313.56 1359.35,1313.08C1370.98,1312.83 1385.16,1306.82 1397.77,1295.3C1414.3,1280.2 1428.45,1255.72 1430.06,1226.89C1431.71,1197.19 1417.21,1171.68 1398.7,1156.08C1385.4,1144.87 1370.02,1138.92 1357,1138.92L1279,1138.92C1270.12,1138.92 1262.92,1146.12 1262.92,1155C1262.92,1163.88 1270.12,1171.08 1279,1171.08Z" style="fill:url(#_Linear2);"/>
            </g>
            <g transform="matrix(2.21644,0,0,1.78261,-2429.68,-936.408)">
                <path d="M1756.7,1257.58C1754.86,1257.58 1753.44,1256.95 1752.46,1255.69C1751.48,1254.43 1750.99,1252.62 1750.99,1250.25L1750.99,1182.22C1750.99,1179.85 1751.48,1178.05 1752.46,1176.83C1753.44,1175.61 1754.86,1175 1756.7,1175C1758.54,1175 1759.97,1175.61 1760.98,1176.83C1762,1178.05 1762.5,1179.85 1762.5,1182.22L1762.5,1211.88L1761.21,1211.88C1762.56,1207.83 1764.67,1204.76 1767.52,1202.66C1770.38,1200.56 1773.62,1199.51 1777.24,1199.51C1780.86,1199.51 1783.84,1200.35 1786.17,1202.03C1788.51,1203.71 1790.26,1206.25 1791.43,1209.65C1792.59,1213.04 1793.18,1217.34 1793.18,1222.53L1793.18,1250.25C1793.18,1252.62 1792.68,1254.43 1791.7,1255.69C1790.72,1256.95 1789.31,1257.58 1787.47,1257.58C1785.62,1257.58 1784.19,1256.95 1783.18,1255.69C1782.17,1254.43 1781.66,1252.62 1781.66,1250.25L1781.66,1223.22C1781.66,1218.87 1781,1215.7 1779.68,1213.71C1778.36,1211.73 1776.32,1210.73 1773.56,1210.73C1770.18,1210.73 1767.49,1212.05 1765.5,1214.69C1763.5,1217.32 1762.5,1220.81 1762.5,1225.16L1762.5,1250.25C1762.5,1255.13 1760.57,1257.58 1756.7,1257.58Z" style="fill:rgb(47,47,47);fill-rule:nonzero;"/>
                <path d="M1827.07,1257.81C1821.98,1257.81 1817.59,1256.62 1813.9,1254.26C1810.22,1251.89 1807.38,1248.53 1805.38,1244.18C1803.38,1239.83 1802.39,1234.67 1802.39,1228.72C1802.39,1222.91 1803.36,1217.84 1805.29,1213.48C1807.22,1209.13 1809.89,1205.71 1813.3,1203.23C1816.71,1200.75 1820.6,1199.51 1824.96,1199.51C1828.15,1199.51 1831.02,1200.16 1833.57,1201.46C1836.12,1202.76 1838.3,1204.63 1840.11,1207.07C1841.92,1209.51 1843.3,1212.47 1844.25,1215.94C1845.2,1219.42 1845.68,1223.33 1845.68,1227.68C1845.68,1229.06 1845.3,1230.11 1844.53,1230.84C1843.76,1231.56 1842.67,1231.92 1841.26,1231.92L1811.69,1231.92L1811.69,1223.68L1837.58,1223.68L1836.1,1225.39C1836.1,1221.88 1835.69,1218.94 1834.86,1216.58C1834.03,1214.21 1832.83,1212.39 1831.27,1211.13C1829.7,1209.88 1827.75,1209.25 1825.42,1209.25C1822.84,1209.25 1820.64,1209.99 1818.83,1211.48C1817.02,1212.97 1815.64,1215.07 1814.68,1217.78C1813.73,1220.49 1813.26,1223.71 1813.26,1227.46L1813.26,1228.26C1813.26,1234.52 1814.44,1239.19 1816.8,1242.29C1819.17,1245.38 1822.65,1246.93 1827.26,1246.93C1828.86,1246.93 1830.65,1246.68 1832.65,1246.18C1834.64,1245.69 1836.53,1244.83 1838.31,1243.61C1839.6,1242.69 1840.74,1242.29 1841.72,1242.4C1842.7,1242.52 1843.49,1242.96 1844.07,1243.72C1844.65,1244.48 1845.01,1245.42 1845.13,1246.53C1845.25,1247.63 1845.08,1248.76 1844.62,1249.9C1844.16,1251.05 1843.38,1252.04 1842.27,1252.88C1840.12,1254.56 1837.65,1255.8 1834.86,1256.6C1832.06,1257.41 1829.47,1257.81 1827.07,1257.81Z" style="fill:rgb(47,47,47);fill-rule:nonzero;"/>
                <path d="M1877,1257.81C1871.9,1257.81 1867.51,1256.62 1863.83,1254.26C1860.14,1251.89 1857.3,1248.53 1855.31,1244.18C1853.31,1239.83 1852.31,1234.67 1852.31,1228.72C1852.31,1222.91 1853.28,1217.84 1855.22,1213.48C1857.15,1209.13 1859.82,1205.71 1863.23,1203.23C1866.64,1200.75 1870.52,1199.51 1874.88,1199.51C1878.08,1199.51 1880.95,1200.16 1883.5,1201.46C1886.04,1202.76 1888.22,1204.63 1890.04,1207.07C1891.85,1209.51 1893.23,1212.47 1894.18,1215.94C1895.13,1219.42 1895.61,1223.33 1895.61,1227.68C1895.61,1229.06 1895.22,1230.11 1894.46,1230.84C1893.69,1231.56 1892.6,1231.92 1891.19,1231.92L1861.62,1231.92L1861.62,1223.68L1887.5,1223.68L1886.03,1225.39C1886.03,1221.88 1885.61,1218.94 1884.78,1216.58C1883.95,1214.21 1882.76,1212.39 1881.19,1211.13C1879.63,1209.88 1877.68,1209.25 1875.34,1209.25C1872.76,1209.25 1870.57,1209.99 1868.76,1211.48C1866.94,1212.97 1865.56,1215.07 1864.61,1217.78C1863.66,1220.49 1863.18,1223.71 1863.18,1227.46L1863.18,1228.26C1863.18,1234.52 1864.37,1239.19 1866.73,1242.29C1869.09,1245.38 1872.58,1246.93 1877.18,1246.93C1878.78,1246.93 1880.58,1246.68 1882.57,1246.18C1884.57,1245.69 1886.46,1244.83 1888.24,1243.61C1889.53,1242.69 1890.66,1242.29 1891.65,1242.4C1892.63,1242.52 1893.41,1242.96 1894,1243.72C1894.58,1244.48 1894.93,1245.42 1895.06,1246.53C1895.18,1247.63 1895.01,1248.76 1894.55,1249.9C1894.09,1251.05 1893.31,1252.04 1892.2,1252.88C1890.05,1254.56 1887.58,1255.8 1884.78,1256.6C1881.99,1257.41 1879.39,1257.81 1877,1257.81Z" style="fill:rgb(47,47,47);fill-rule:nonzero;"/>
                <path d="M1922.05,1257.81C1918.11,1257.81 1914.66,1256.62 1911.68,1254.26C1908.7,1251.89 1906.38,1248.51 1904.73,1244.12C1903.07,1239.73 1902.24,1234.56 1902.24,1228.6C1902.24,1222.57 1903.07,1217.4 1904.73,1213.08C1906.38,1208.77 1908.7,1205.43 1911.68,1203.06C1914.66,1200.69 1918.11,1199.51 1922.05,1199.51C1925.79,1199.51 1929.06,1200.65 1931.86,1202.95C1934.65,1205.24 1936.54,1208.25 1937.52,1211.99L1936.51,1211.99L1936.51,1182.22C1936.51,1179.85 1937,1178.05 1937.98,1176.83C1938.96,1175.61 1940.38,1175 1942.22,1175C1944.06,1175 1945.49,1175.61 1946.5,1176.83C1947.51,1178.05 1948.02,1179.85 1948.02,1182.22L1948.02,1250.25C1948.02,1252.62 1947.53,1254.43 1946.55,1255.69C1945.57,1256.95 1944.15,1257.58 1942.31,1257.58C1940.47,1257.58 1939.06,1256.95 1938.07,1255.69C1937.09,1254.43 1936.6,1252.62 1936.6,1250.25L1936.6,1241.31L1937.61,1244.75C1936.69,1248.72 1934.82,1251.89 1931.99,1254.26C1929.17,1256.62 1925.85,1257.81 1922.05,1257.81ZM1925.27,1246.93C1927.54,1246.93 1929.54,1246.24 1931.26,1244.87C1932.98,1243.49 1934.31,1241.45 1935.26,1238.74C1936.22,1236.03 1936.69,1232.65 1936.69,1228.6C1936.69,1222.49 1935.65,1217.93 1933.56,1214.91C1931.47,1211.9 1928.71,1210.39 1925.27,1210.39C1923,1210.39 1921,1211.06 1919.28,1212.39C1917.56,1213.73 1916.23,1215.75 1915.27,1218.46C1914.32,1221.18 1913.85,1224.55 1913.85,1228.6C1913.85,1234.63 1914.89,1239.19 1916.98,1242.29C1919.07,1245.38 1921.83,1246.93 1925.27,1246.93Z" style="fill:rgb(47,47,47);fill-rule:nonzero;"/>
                <path d="M1982.19,1257.81C1977.1,1257.81 1972.71,1256.62 1969.02,1254.26C1965.34,1251.89 1962.5,1248.53 1960.5,1244.18C1958.51,1239.83 1957.51,1234.67 1957.51,1228.72C1957.51,1222.91 1958.48,1217.84 1960.41,1213.48C1962.35,1209.13 1965.02,1205.71 1968.42,1203.23C1971.83,1200.75 1975.72,1199.51 1980.08,1199.51C1983.27,1199.51 1986.14,1200.16 1988.69,1201.46C1991.24,1202.76 1993.42,1204.63 1995.23,1207.07C1997.04,1209.51 1998.42,1212.47 1999.38,1215.94C2000.33,1219.42 2000.8,1223.33 2000.8,1227.68C2000.8,1229.06 2000.42,1230.11 1999.65,1230.84C1998.88,1231.56 1997.79,1231.92 1996.38,1231.92L1966.81,1231.92L1966.81,1223.68L1992.7,1223.68L1991.22,1225.39C1991.22,1221.88 1990.81,1218.94 1989.98,1216.58C1989.15,1214.21 1987.95,1212.39 1986.39,1211.13C1984.82,1209.88 1982.87,1209.25 1980.54,1209.25C1977.96,1209.25 1975.76,1209.99 1973.95,1211.48C1972.14,1212.97 1970.76,1215.07 1969.81,1217.78C1968.85,1220.49 1968.38,1223.71 1968.38,1227.46L1968.38,1228.26C1968.38,1234.52 1969.56,1239.19 1971.92,1242.29C1974.29,1245.38 1977.77,1246.93 1982.38,1246.93C1983.98,1246.93 1985.77,1246.68 1987.77,1246.18C1989.76,1245.69 1991.65,1244.83 1993.43,1243.61C1994.72,1242.69 1995.86,1242.29 1996.84,1242.4C1997.82,1242.52 1998.61,1242.96 1999.19,1243.72C1999.77,1244.48 2000.13,1245.42 2000.25,1246.53C2000.37,1247.63 2000.2,1248.76 1999.74,1249.9C1999.28,1251.05 1998.5,1252.04 1997.39,1252.88C1995.25,1254.56 1992.77,1255.8 1989.98,1256.6C1987.18,1257.41 1984.59,1257.81 1982.19,1257.81Z" style="fill:rgb(47,47,47);fill-rule:nonzero;"/>
                <path d="M2015.63,1257.58C2013.79,1257.58 2012.38,1256.95 2011.4,1255.69C2010.41,1254.43 2009.92,1252.62 2009.92,1250.25L2009.92,1206.95C2009.92,1204.59 2010.41,1202.79 2011.4,1201.57C2012.38,1200.35 2013.76,1199.74 2015.54,1199.74C2017.32,1199.74 2018.7,1200.35 2019.69,1201.57C2020.67,1202.79 2021.16,1204.59 2021.16,1206.95L2021.16,1214.74L2020.15,1211.88C2021.5,1207.83 2023.6,1204.76 2026.46,1202.66C2029.31,1200.56 2032.55,1199.51 2036.17,1199.51C2039.8,1199.51 2042.78,1200.35 2045.11,1202.03C2047.44,1203.71 2049.19,1206.25 2050.36,1209.65C2051.53,1213.04 2052.11,1217.34 2052.11,1222.53L2052.11,1250.25C2052.11,1252.62 2051.62,1254.43 2050.64,1255.69C2049.65,1256.95 2048.24,1257.58 2046.4,1257.58C2044.56,1257.58 2043.13,1256.95 2042.12,1255.69C2041.1,1254.43 2040.6,1252.62 2040.6,1250.25L2040.6,1223.22C2040.6,1218.87 2039.94,1215.7 2038.62,1213.71C2037.3,1211.73 2035.25,1210.73 2032.49,1210.73C2029.11,1210.73 2026.43,1212.05 2024.43,1214.69C2022.43,1217.32 2021.44,1220.81 2021.44,1225.16L2021.44,1250.25C2021.44,1255.13 2019.5,1257.58 2015.63,1257.58Z" style="fill:rgb(47,47,47);fill-rule:nonzero;"/>
                <path d="M2086.01,1257.81C2080.91,1257.81 2076.52,1256.62 2072.84,1254.26C2069.15,1251.89 2066.31,1248.53 2064.32,1244.18C2062.32,1239.83 2061.32,1234.67 2061.32,1228.72C2061.32,1222.91 2062.29,1217.84 2064.22,1213.48C2066.16,1209.13 2068.83,1205.71 2072.24,1203.23C2075.65,1200.75 2079.53,1199.51 2083.89,1199.51C2087.08,1199.51 2089.95,1200.16 2092.5,1201.46C2095.05,1202.76 2097.23,1204.63 2099.04,1207.07C2100.86,1209.51 2102.24,1212.47 2103.19,1215.94C2104.14,1219.42 2104.62,1223.33 2104.62,1227.68C2104.62,1229.06 2104.23,1230.11 2103.47,1230.84C2102.7,1231.56 2101.61,1231.92 2100.19,1231.92L2070.63,1231.92L2070.63,1223.68L2096.51,1223.68L2095.04,1225.39C2095.04,1221.88 2094.62,1218.94 2093.79,1216.58C2092.96,1214.21 2091.77,1212.39 2090.2,1211.13C2088.63,1209.88 2086.68,1209.25 2084.35,1209.25C2081.77,1209.25 2079.58,1209.99 2077.76,1211.48C2075.95,1212.97 2074.57,1215.07 2073.62,1217.78C2072.67,1220.49 2072.19,1223.71 2072.19,1227.46L2072.19,1228.26C2072.19,1234.52 2073.37,1239.19 2075.74,1242.29C2078.1,1245.38 2081.59,1246.93 2086.19,1246.93C2087.79,1246.93 2089.59,1246.68 2091.58,1246.18C2093.58,1245.69 2095.47,1244.83 2097.25,1243.61C2098.54,1242.69 2099.67,1242.29 2100.66,1242.4C2101.64,1242.52 2102.42,1242.96 2103,1243.72C2103.59,1244.48 2103.94,1245.42 2104.06,1246.53C2104.19,1247.63 2104.02,1248.76 2103.56,1249.9C2103.1,1251.05 2102.31,1252.04 2101.21,1252.88C2099.06,1254.56 2096.59,1255.8 2093.79,1256.6C2091,1257.41 2088.4,1257.81 2086.01,1257.81Z" style="fill:rgb(47,47,47);fill-rule:nonzero;"/>
            </g>
        </g>
    </g>
    <defs>
        <linearGradient id="_Linear1" x1="0" y1="0" x2="1" y2="0" gradientUnits="userSpaceOnUse" gradientTransform="matrix(226.484,-184.992,184.992,226.484,1195.69,1369.53)"><stop offset="0" style="stop-color:rgb(0,212,255);stop-opacity:1"/><stop offset="1" style="stop-color:rgb(138,43,226);stop-opacity:1"/></linearGradient>
        <linearGradient id="_Linear2" x1="0" y1="0" x2="1" y2="0" gradientUnits="userSpaceOnUse" gradientTransform="matrix(217.625,-177.756,177.756,217.625,1198.95,1363.05)"><stop offset="0" style="stop-color:rgb(0,212,255);stop-opacity:1"/><stop offset="1" style="stop-color:rgb(138,43,226);stop-opacity:1"/></linearGradient>
    </defs>
</svg>
